<svg width="21" height="21" fill="none" xmlns="http://www.w3.org/2000/svg"><path d="M18.375 13.125v3.439a1.75 1.75 0 01-2.004 1.75A15.75 15.75 0 012.748 4.629a1.75 1.75 0 011.74-2.004h3.387a.875.875 0 01.875.779 9.398 9.398 0 00.875 3.307.875.875 0 01-.367 1.103l-.753.428a.875.875 0 00-.289 1.278 12.32 12.32 0 003.229 3.229.875.875 0 001.277-.289l.43-.753a.874.874 0 011.137-.332 9.39 9.39 0 003.307.875.875.875 0 01.779.875z" stroke="#fff" stroke-width="2" stroke-linecap="round" stroke-linejoin="round"/></svg>