<svg width="21" height="21" viewBox="0 0 21 21" fill="none" xmlns="http://www.w3.org/2000/svg">
<path d="M18.375 13.125V16.5637C18.3777 16.8166 18.3255 17.067 18.2222 17.2977C18.1188 17.5284 17.9667 17.734 17.7763 17.9003C17.5858 18.0666 17.3616 18.1897 17.1191 18.2611C16.8765 18.3325 16.6214 18.3504 16.3713 18.3137C12.9036 17.8683 9.68271 16.2817 7.2161 13.804C4.7495 11.3263 3.17739 8.09837 2.7475 4.62875C2.71095 4.37933 2.72871 4.12495 2.79957 3.88304C2.87043 3.64112 2.99272 3.41736 3.15807 3.22709C3.32342 3.03681 3.52793 2.8845 3.7576 2.78058C3.98726 2.67666 4.23667 2.62359 4.48875 2.625H7.875C8.09132 2.62368 8.30045 2.70254 8.46203 2.84636C8.62362 2.99017 8.72621 3.18874 8.75 3.40375C8.83683 4.5505 9.13341 5.67157 9.625 6.71125C9.7093 6.90815 9.71845 7.12912 9.65072 7.33232C9.58299 7.53551 9.44308 7.70681 9.2575 7.81375L8.505 8.2425C8.39654 8.30215 8.30196 8.38414 8.22753 8.48305C8.1531 8.58196 8.1005 8.69554 8.0732 8.81628C8.04591 8.93702 8.04455 9.06218 8.06921 9.18349C8.09387 9.3048 8.14399 9.41949 8.21625 9.52C9.08191 10.788 10.177 11.8831 11.445 12.7487C11.5455 12.821 11.6602 12.8711 11.7815 12.8958C11.9028 12.9204 12.028 12.9191 12.1487 12.8918C12.2695 12.8645 12.383 12.8119 12.4819 12.7375C12.5809 12.663 12.6628 12.5685 12.7225 12.46L13.1513 11.7075C13.2646 11.5195 13.4444 11.3809 13.6551 11.3194C13.8658 11.2578 14.092 11.2776 14.2888 11.375C15.3284 11.8666 16.4495 12.1632 17.5963 12.25C17.8113 12.2738 18.0098 12.3764 18.1536 12.538C18.2975 12.6996 18.3763 12.9087 18.375 13.125Z" stroke="white" stroke-width="2" stroke-linecap="round" stroke-linejoin="round"/>
</svg>
